<mxfile host="app.diagrams.net" modified="2024-06-26T09:24:18.381Z" agent="Mozilla/5.0 (Windows NT 10.0; Win64; x64) AppleWebKit/537.36 (KHTML, like Gecko) Chrome/126.0.0.0 Safari/537.36" version="24.6.3" etag="SV4Gf7HG6HhKnTMw5s83" type="github">
  <diagram name="Page-1" id="vqWD3yFLzIB-eeM0O3ob">
    <mxGraphModel>
      <root>
        <mxCell id="0" />
        <mxCell id="1" parent="0" />
      </root>
    </mxGraphModel>
  </diagram>
</mxfile>
